<?xml version="1.0" encoding="utf-8"?>
<!-- Generator: Adobe Illustrator 24.1.2, SVG Export Plug-In . SVG Version: 6.00 Build 0)  -->
<svg version="1.1" id="Layer_1" xmlns="http://www.w3.org/2000/svg" xmlns:xlink="http://www.w3.org/1999/xlink" x="0px" y="0px"
	 viewBox="0 0 64 64" style="enable-background:new 0 0 64 64;" xml:space="preserve">
<style type="text/css">
	.st0{fill:#56B7AD;}
</style>
<g id="Layer_2_1_">
</g>
<g id="XL7yi9_4_">
	<g>
		<path class="st0" d="M63.6,32c0,17.4-14.1,31.6-31.5,31.6C14.6,63.6,0.4,49.4,0.4,32c0-17.4,14.1-31.6,31.5-31.6
			C49.4,0.4,63.6,14.5,63.6,32z M13.6,53.8c4.1-7.1,10.1-11.1,18.4-11.1c8.2,0,14.3,4,18.4,11.1c8.2-6.6,12.5-18.6,8.9-30.3
			c-3.7-12-15-20.3-27.5-20.1C19.1,3.5,8.1,11.9,4.6,24C1.1,36.2,6.1,47.7,13.6,53.8z"/>
		<path class="st0" d="M32,40.5c-6.7,0-12-5.4-12-12.1c0-6.6,5.4-11.9,12.1-11.9C38.7,16.6,44,22,44,28.7
			C43.9,35.2,38.5,40.6,32,40.5z"/>
	</g>
</g>
</svg>
